<svg width="560" height="520" viewBox="0 0 560 520" fill="none" xmlns="http://www.w3.org/2000/svg">
  <rect x="82" y="70" width="396" height="340" rx="44" fill="#DDF4F8"/>
  <circle cx="437" cy="118" r="30" fill="#FFF1E7"/>
  <circle cx="115" cy="380" r="46" fill="#FFF6EF"/>
  <rect x="118" y="108" width="324" height="208" rx="24" fill="#FFFFFF" stroke="#CDE8EE" stroke-width="4"/>
  <rect x="118" y="108" width="324" height="40" rx="24" fill="#EFF8FA"/>
  <circle cx="148" cy="128" r="6" fill="#FF8A4D"/>
  <circle cx="170" cy="128" r="6" fill="#7AD7E5"/>
  <circle cx="192" cy="128" r="6" fill="#0F9FB5"/>

  <rect x="144" y="170" width="148" height="108" rx="18" fill="#F5FBFD" stroke="#D8ECF1" stroke-width="3"/>
  <rect x="171" y="190" width="92" height="58" rx="12" fill="#153244"/>
  <path d="M197 216L184 228L197 240" stroke="#7AD7E5" stroke-width="6" stroke-linecap="round" stroke-linejoin="round"/>
  <path d="M236 216L249 228L236 240" stroke="#FF8A4D" stroke-width="6" stroke-linecap="round" stroke-linejoin="round"/>
  <path d="M212 246L222 206" stroke="#FFFFFF" stroke-width="5" stroke-linecap="round"/>
  <rect x="166" y="258" width="100" height="10" rx="5" fill="#D8ECF1"/>

  <rect x="316" y="170" width="100" height="28" rx="14" fill="#E9F8FB"/>
  <circle cx="336" cy="184" r="8" fill="#0F9FB5"/>
  <rect x="352" y="178" width="46" height="12" rx="6" fill="#B6DDE6"/>

  <rect x="316" y="210" width="100" height="28" rx="14" fill="#FFF3EA"/>
  <circle cx="336" cy="224" r="8" fill="#FF8A4D"/>
  <rect x="352" y="218" width="46" height="12" rx="6" fill="#E5C4AF"/>

  <rect x="316" y="250" width="100" height="28" rx="14" fill="#E9F8FB"/>
  <circle cx="336" cy="264" r="8" fill="#7AD7E5"/>
  <rect x="352" y="258" width="46" height="12" rx="6" fill="#B6DDE6"/>

  <rect x="168" y="334" width="242" height="34" rx="17" fill="#FFFFFF"/>
  <rect x="182" y="347" width="96" height="8" rx="4" fill="#B8DDE6"/>
  <rect x="288" y="347" width="72" height="8" rx="4" fill="#D7ECF1"/>
  <rect x="368" y="342" width="28" height="18" rx="9" fill="#FF8A4D"/>

  <path d="M88 160C107 145 132 142 153 151" stroke="#7AD7E5" stroke-width="6" stroke-linecap="round"/>
  <path d="M415 92C429 85 447 87 458 97" stroke="#0F9FB5" stroke-width="6" stroke-linecap="round"/>
  <path d="M428 350C443 341 461 343 474 354" stroke="#FF8A4D" stroke-width="6" stroke-linecap="round"/>

  <circle cx="453" cy="246" r="16" fill="#FFFFFF" stroke="#D8ECF1" stroke-width="4"/>
  <path d="M453 238V254" stroke="#0F9FB5" stroke-width="5" stroke-linecap="round"/>
  <path d="M445 246H461" stroke="#0F9FB5" stroke-width="5" stroke-linecap="round"/>
</svg>
